<svg xmlns="http://www.w3.org/2000/svg" width="80" height="80" viewBox="0 0 92 112" fill="none">
<path fill-rule="evenodd" clip-rule="evenodd" d="M90.2406 27.682L65.4356 1.4882L62.7888 0.376953H4.40625L0.625 4.3457V48.002H8.1875V8.31445H53.5625V36.0957L57.3438 40.0645H83.8125V48.002H91.375V30.5395L90.2406 27.682ZM61.125 32.127V8.31445L83.8125 32.127H61.125ZM4.40625 55.9395L0.625 59.9082V107.533L4.40625 111.502H87.5938L91.375 107.533V59.9082L87.5938 55.9395H4.40625ZM83.8125 95.627V103.564H8.1875V63.877H83.8125V95.627ZM23.3125 87.6895H20.8925V95.627H15.75V71.8145H23.7662C29.4381 71.8145 32.3119 74.672 32.3119 79.752C32.3265 80.8316 32.1177 81.9017 31.6999 82.8884C31.2821 83.8751 30.6652 84.7549 29.8919 85.467C28.0177 87.0003 25.6869 87.7876 23.3125 87.6895ZM22.8588 76.1801H20.8925V83.562H22.8588C25.5813 83.562 26.9425 82.292 26.9425 79.8313C26.9425 77.3707 25.5813 76.1801 22.8588 76.1801ZM53.5625 92.2932C54.6794 91.1386 55.5527 89.7506 56.1259 88.2192C56.6991 86.6877 56.9594 85.047 56.89 83.4032C56.89 75.4657 52.8819 71.8145 44.79 71.8145H36.7738V95.627H44.79C46.3897 95.7083 47.9888 95.4555 49.4947 94.8832C51.0006 94.3109 52.3832 93.4306 53.5625 92.2932ZM41.8406 91.2613V76.1801H44.3363C45.3008 76.1158 46.2677 76.2586 47.1779 76.5997C48.0881 76.9409 48.9225 77.4734 49.63 78.1645C50.271 78.8709 50.769 79.7064 51.0939 80.6204C51.4188 81.5344 51.564 82.5081 51.5206 83.4826C51.6339 85.5748 50.9543 87.6292 49.63 89.1976C48.9377 89.893 48.1185 90.4342 47.2218 90.7889C46.3251 91.1435 45.3693 91.3042 44.4119 91.2613H41.8406ZM75.4937 86.4195H68.1581V95.627H63.0156V71.8145H76.1744V76.1801H68.1581V82.0538H75.4937V86.4195Z" fill="#DEE1D3"/>
</svg>