<svg xmlns="http://www.w3.org/2000/svg" width="21" height="20" viewBox="0 0 21 20" fill="none">
<path opacity="0.4" d="M13.9153 1.66667H6.932C3.89867 1.66667 2.09033 3.47501 2.09033 6.50834V13.4833C2.09033 16.525 3.89867 18.3333 6.932 18.3333H13.907C16.9403 18.3333 18.7487 16.525 18.7487 13.4917V6.50834C18.757 3.47501 16.9487 1.66667 13.9153 1.66667Z" fill="#858F95"/>
<path d="M18.1737 10.1917H15.2737C14.457 10.1917 13.732 10.6417 13.3653 11.375L12.6653 12.7583C12.4987 13.0917 12.1653 13.3 11.7987 13.3H9.06533C8.807 13.3 8.44033 13.2417 8.19867 12.7583L7.49867 11.3833C7.132 10.6583 6.39867 10.2 5.59033 10.2H2.67367C2.34867 10.2 2.09033 10.4583 2.09033 10.7833V13.5C2.09033 16.525 3.907 18.3333 6.94033 18.3333H13.9237C16.782 18.3333 18.5403 16.7667 18.757 13.9833V10.775C18.757 10.4583 18.4987 10.1917 18.1737 10.1917Z" fill="#858F95"/>
</svg>