<svg xmlns="http://www.w3.org/2000/svg" width="21" height="20" viewBox="0 0 21 20" fill="none">
<path opacity="0.4" d="M10.4237 18.3417C15.026 18.3417 18.757 14.6107 18.757 10.0083C18.757 5.40596 15.026 1.675 10.4237 1.675C5.82129 1.675 2.09033 5.40596 2.09033 10.0083C2.09033 14.6107 5.82129 18.3417 10.4237 18.3417Z" fill="#858F95"/>
<path d="M10.4238 5.78334C8.69883 5.78334 7.29883 7.18334 7.29883 8.90834C7.29883 10.6 8.62383 11.975 10.3822 12.025C10.4072 12.025 10.4405 12.025 10.4572 12.025C10.4738 12.025 10.4988 12.025 10.5155 12.025C10.5238 12.025 10.5322 12.025 10.5322 12.025C12.2155 11.9667 13.5405 10.6 13.5488 8.90834C13.5488 7.18334 12.1488 5.78334 10.4238 5.78334Z" fill="#858F95"/>
<path d="M16.0739 16.1333C14.5906 17.5 12.6073 18.3417 10.4239 18.3417C8.24059 18.3417 6.25726 17.5 4.77393 16.1333C4.97393 15.375 5.51559 14.6833 6.30726 14.15C8.58226 12.6333 12.2823 12.6333 14.5406 14.15C15.3406 14.6833 15.8739 15.375 16.0739 16.1333Z" fill="#858F95"/>
</svg>